<!--
  - Copyright (c) TIKI Inc.
  - MIT license. See LICENSE file in root directory.
  -->

<svg viewBox="0 0 18 18" xmlns="http://www.w3.org/2000/svg">
  <path
    d="M14.0872 0.900024H3.91302C3.11427 0.900727 2.34857 1.21853 1.78326 1.78314C1.21866 2.34845 0.900848 3.11415 0.900146 3.9129V14.087C0.90085 14.8858 1.21866 15.6515 1.78326 16.2168C2.34857 16.7814 3.11427 17.0992 3.91302 17.0999H14.0872C14.8859 17.0992 15.6516 16.7814 16.2169 16.2168C16.7815 15.6515 17.0993 14.8858 17.1 14.087V3.9129C17.0993 3.11415 16.7815 2.34845 16.2169 1.78314C15.6516 1.21853 14.8859 0.900726 14.0872 0.900024ZM12.8208 9.55892H9.55905V12.8207C9.55905 13.1294 9.30874 13.3797 9.00006 13.3797C8.69137 13.3797 8.44107 13.1294 8.44107 12.8207V9.55892H5.17929C4.87062 9.55892 4.6203 9.30862 4.6203 8.99993C4.6203 8.69125 4.8706 8.44094 5.17929 8.44094H8.44107V5.17916C8.44107 4.8705 8.69137 4.62017 9.00006 4.62017C9.30874 4.62017 9.55905 4.87048 9.55905 5.17916V8.44094H12.8208C13.1295 8.44094 13.3798 8.69125 13.3798 8.99993C13.3798 9.30862 13.1295 9.55892 12.8208 9.55892Z"/>
</svg>
