<!--
  - Copyright (c) TIKI Inc.
  - MIT license. See LICENSE file in root directory.
  -->

<svg viewBox="0 0 24 24" xmlns="http://www.w3.org/2000/svg" fill="currentColor" aria-hidden="true">
  <path
    d="M21.098 2.30514C20.7077 2.16802 20.2726 2.29234 20.0139 2.615L16.7489 6.69714C15.3815 5.66424 13.7141 5.10484 12.0003 5.10484C10.2865 5.10484 8.61925 5.66424 7.25175 6.69714L3.98673 2.615C3.72804 2.29234 3.29297 2.16801 2.90265 2.30514C2.51234 2.44225 2.25091 2.81062 2.25 3.22469V17.8497C2.25183 18.8836 2.66224 19.8753 3.39349 20.6065C4.12474 21.3377 5.11651 21.7482 6.15026 21.75H17.8503C18.8841 21.7482 19.8759 21.3378 20.6071 20.6065C21.3383 19.8753 21.7487 18.8835 21.7506 17.8497V3.22469C21.7506 2.81062 21.4892 2.44224 21.098 2.30514ZM8.09995 13.9495C7.31111 13.9495 6.6009 13.4751 6.29833 12.7457C5.99668 12.0172 6.16396 11.179 6.72155 10.6214C7.27912 10.0629 8.11825 9.89652 8.84674 10.1982C9.57526 10.4998 10.0506 11.211 10.0506 11.9998C10.0487 13.0766 9.17671 13.9486 8.09995 13.9495ZM12.9747 18.8242L11.025 18.8251C10.4866 18.8251 10.0506 18.3882 10.0506 17.8498C10.0506 17.3114 10.4866 16.8745 11.025 16.8745H12.9756C13.514 16.8745 13.95 17.3114 13.95 17.8498C13.95 18.3882 13.514 18.8251 12.9756 18.8251L12.9747 18.8242ZM15.9006 13.9495C15.1117 13.9495 14.4006 13.4751 14.099 12.7457C13.7973 12.0172 13.9637 11.179 14.5213 10.6214C15.0788 10.0629 15.918 9.89652 16.6465 10.1982C17.375 10.4998 17.8503 11.211 17.8503 11.9998C17.8494 13.0766 16.9764 13.9486 15.9006 13.9495Z"/>
</svg>
