<!--
  - Copyright (c) TIKI Inc.
  - MIT license. See LICENSE file in root directory.
  -->

<svg viewBox="0 0 24 24" fill="currentColor" aria-hidden="true" xmlns="http://www.w3.org/2000/svg">
  <path
    d="M21.0662 2C21.0662 4.75676 21.2264 7.20421 21.3081 10.0294H20.3045C19.8172 8.53511 18.4147 7.44853 16.7646 7.44853C14.811 7.44853 13.2047 8.97309 13.0545 10.8897H11.298C11.1479 8.97309 9.5416 7.44853 7.58788 7.44853C5.93786 7.44853 4.53527 8.53511 4.04805 10.0294H3.17881C3.48797 7.08233 4.1668 4.38158 5.00694 2L7.87458 5.44118C11.1185 4.8049 14.4702 4.86765 17.9113 5.44118L21.0662 2ZM16.7647 10.0294C16.4477 10.0294 16.1912 10.5425 16.1912 11.1765C16.1912 11.8105 16.4477 12.3235 16.7647 12.3235C17.0817 12.3235 17.3382 11.8105 17.3382 11.1765C17.3382 10.5425 17.0817 10.0294 16.7647 10.0294ZM7.58823 10.0294C7.27122 10.0294 7.01471 10.5425 7.01471 11.1765C7.01471 11.8105 7.27123 12.3235 7.58823 12.3235C7.90524 12.3235 8.16176 11.8105 8.16176 11.1765C8.16176 10.5425 7.90524 10.0294 7.58823 10.0294ZM21.3171 10.6029C21.3373 11.4263 21.3529 12.2742 21.3529 13.1838C21.3529 18.0588 18.259 21.5 13.8971 21.5H10.4559C5.86765 21.5 3 18.0588 3 13.4706C3 12.4927 3.04369 11.536 3.12546 10.6029H3.91406C3.88382 10.7923 3.86029 10.9883 3.86029 11.1854C3.86029 13.2376 5.53609 14.9134 7.58823 14.9134C9.54517 14.9134 11.1628 13.3843 11.3073 11.4633H13.0458C13.1903 13.3844 14.8078 14.9134 16.7648 14.9134C18.817 14.9134 20.4928 13.2376 20.4928 11.1854C20.4928 10.9883 20.4681 10.7922 20.439 10.6029H21.3171ZM12.1765 13.9007C11.7015 13.9007 11.3162 14.1573 11.3162 14.4743C11.3162 14.6983 11.5111 14.891 11.7911 14.9851C11.6119 16.1724 11.6433 17.4192 11.8718 18.5518C11.8841 18.8173 11.6701 18.9909 11.4237 19.0895C11.1392 19.2038 10.8468 19.1937 10.662 19.0089C10.5567 18.9013 10.3573 18.8946 10.2498 18.9999C10.1422 19.1052 10.1445 19.3046 10.2498 19.4121C10.6385 19.7997 11.2064 19.7907 11.6388 19.6182C11.8393 19.5387 12.0286 19.4256 12.1765 19.2777C12.3243 19.4256 12.5137 19.5387 12.7142 19.6182C13.1466 19.7907 13.7145 19.8008 14.1032 19.4121C14.2085 19.3046 14.2107 19.1052 14.1032 18.9999C13.9957 18.8946 13.7963 18.9013 13.691 19.0089C13.5061 19.1937 13.2138 19.2038 12.9293 19.0895C12.6447 18.9517 12.4823 18.7871 12.4095 18.4622C12.2168 17.4193 12.2 16.121 12.3647 15.0388C12.7478 14.9806 13.0368 14.7476 13.0368 14.4742C13.0368 14.1572 12.6514 13.9007 12.1765 13.9007Z"/>
</svg>
