<!--
  - Copyright (c) TIKI Inc.
  - MIT license. See LICENSE file in root directory.
  -->

<svg viewBox="0 0 30 30" xmlns="http://www.w3.org/2000/svg">
  <path
    d="M27.555 5.55601H20.8879C20.8879 3.57145 19.8294 1.73649 18.111 0.744662C16.3913 -0.248221 14.2743 -0.248221 12.5548 0.744662C10.8364 1.73633 9.77789 3.57139 9.77789 5.55601H3.11076C2.49703 5.55601 2 6.05307 2 6.66677C2 7.28047 2.49706 7.77753 3.11076 7.77753H4.22153V22.7607C4.22396 24.6796 4.98714 26.5195 6.34461 27.8769C7.70209 29.2343 9.54191 29.9976 11.4621 30H19.2047H19.2035C21.1237 29.9976 22.9636 29.2344 24.321 27.8769C25.6784 26.5194 26.4417 24.6796 26.4441 22.7607V7.77753H27.5548C28.1686 7.77753 28.6656 7.28047 28.6656 6.66677C28.6656 6.05307 28.1687 5.55601 27.555 5.55601ZM13.1101 21.1116C13.1101 21.7253 12.613 22.2224 11.9993 22.2224C11.3856 22.2224 10.8886 21.7253 10.8886 21.1116V13.3338C10.8886 12.7201 11.3856 12.2218 11.9993 12.2218C12.613 12.2218 13.1101 12.7201 13.1101 13.3338V21.1116ZM19.7772 21.1116C19.7772 21.7253 19.2801 22.2224 18.6664 22.2224C18.0527 22.2224 17.5557 21.7253 17.5557 21.1116V13.3338C17.5557 12.7201 18.0527 12.2218 18.6664 12.2218C19.2801 12.2218 19.7772 12.7201 19.7772 13.3338V21.1116ZM15.333 2.22244C17.1741 2.22244 18.6665 3.71482 18.6665 5.55601H11.9994C11.9994 3.71485 13.4918 2.22244 15.333 2.22244Z"/>
</svg>
