<!--
  - Copyright (c) TIKI Inc.
  - MIT license. See LICENSE file in root directory.
  -->

<svg viewBox="0 0 24 24" xmlns="http://www.w3.org/2000/svg" fill="currentColor" aria-hidden="true">
<path d="M18.9419 5.26946C17.6279 4.66787 16.2407 4.24108 14.8158 4C14.6207 4.34858 14.4444 4.70721 14.2872 5.0744C12.7694 4.84568 11.2259 4.84568 9.70803 5.0744C9.55081 4.70725 9.37439 4.34861 9.17948 4C7.75363 4.24312 6.36552 4.67092 5.05017 5.27262C2.43887 9.13607 1.73099 12.9036 2.08493 16.6176C3.61417 17.7475 5.32583 18.6067 7.1455 19.1581C7.55523 18.6071 7.91779 18.0223 8.22935 17.4105C7.6376 17.1894 7.06647 16.9167 6.52257 16.5955C6.66571 16.4918 6.80572 16.3848 6.941 16.2809C8.52367 17.0253 10.2511 17.4112 12 17.4112C13.7489 17.4112 15.4763 17.0253 17.059 16.2809C17.1958 16.3927 17.3358 16.4996 17.4775 16.5955C16.9325 16.9173 16.3603 17.1905 15.7674 17.412C16.0786 18.0236 16.4412 18.6079 16.8513 19.1581C18.6725 18.6089 20.3856 17.7501 21.915 16.6192C22.3303 12.3121 21.2056 8.5792 18.9419 5.26946ZM8.67767 14.3335C7.69136 14.3335 6.87651 13.4384 6.87651 12.3373C6.87651 11.2361 7.66304 10.3332 8.67452 10.3332C9.68601 10.3332 10.4946 11.2361 10.4773 12.3373C10.46 13.4384 9.68286 14.3335 8.67767 14.3335ZM15.3223 14.3335C14.3344 14.3335 13.5227 13.4384 13.5227 12.3373C13.5227 11.2361 14.3092 10.3332 15.3223 10.3332C16.3353 10.3332 17.1377 11.2361 17.1203 12.3373C17.103 13.4384 16.3275 14.3335 15.3223 14.3335Z" />
</svg>
