<!--
  - Copyright (c) TIKI Inc.
  - MIT license. See LICENSE file in root directory.
  -->

<svg viewBox="0 0 17 17" xmlns="http://www.w3.org/2000/svg">
  <path
    d="M14.4006 3.07898C13.2837 2.56763 12.1046 2.20486 10.8934 1.99994C10.7276 2.29623 10.5777 2.60107 10.4441 2.91318C9.15397 2.71877 7.84196 2.71877 6.55181 2.91318C6.41817 2.6011 6.26821 2.29626 6.10254 1.99994C4.89057 2.20659 3.71068 2.57022 2.59264 3.08166C0.37304 6.36559 -0.228658 9.56796 0.0721909 12.7249C1.37204 13.6853 2.82695 14.4156 4.37366 14.8843C4.72193 14.4159 5.03011 13.9189 5.29493 13.3988C4.79195 13.2109 4.30649 12.9791 3.84417 12.7061C3.96584 12.6179 4.08485 12.527 4.19984 12.4387C5.5451 13.0714 7.01338 13.3994 8.49997 13.3994C9.98656 13.3994 11.4548 13.0714 12.8001 12.4387C12.9164 12.5337 13.0354 12.6246 13.1558 12.7061C12.6926 12.9796 12.2062 13.2118 11.7023 13.4001C11.9668 13.92 12.275 14.4166 12.6236 14.8843C14.1716 14.4175 15.6277 13.6875 16.9277 12.7262V12.7262C17.2807 9.06521 16.3247 5.89225 14.4006 3.07898ZM5.676 10.7834C4.83764 10.7834 4.14502 10.0226 4.14502 9.0866C4.14502 8.15063 4.81357 7.38313 5.67333 7.38313C6.53309 7.38313 7.22036 8.15063 7.20565 9.0866C7.19094 10.0226 6.53041 10.7834 5.676 10.7834ZM11.3239 10.7834C10.4842 10.7834 9.79429 10.0226 9.79429 9.0866C9.79429 8.15063 10.4628 7.38313 11.3239 7.38313C12.185 7.38313 12.867 8.15063 12.8522 9.0866C12.8375 10.0226 12.1783 10.7834 11.3239 10.7834Z"/>
</svg>
