<!--
  - Copyright (c) TIKI Inc.
  - MIT license. See LICENSE file in root directory.
  -->

<svg width="17" height="17" viewBox="0 0 17 17" fill="none" xmlns="http://www.w3.org/2000/svg">
<path d="M14.4006 3.07904C13.2837 2.56769 12.1046 2.20492 10.8934 2C10.7276 2.29629 10.5777 2.60113 10.4441 2.91324C9.15397 2.71883 7.84196 2.71883 6.55181 2.91324C6.41817 2.60116 6.26821 2.29632 6.10254 2C4.89057 2.20665 3.71068 2.57028 2.59264 3.08172C0.37304 6.36565 -0.228658 9.56802 0.0721909 12.7249C1.37204 13.6853 2.82695 14.4157 4.37366 14.8844C4.72193 14.4159 5.03011 13.919 5.29493 13.3988C4.79195 13.211 4.30649 12.9792 3.84417 12.7062C3.96584 12.618 4.08485 12.527 4.19984 12.4388C5.5451 13.0714 7.01338 13.3994 8.49997 13.3994C9.98656 13.3994 11.4548 13.0714 12.8001 12.4388C12.9164 12.5337 13.0354 12.6246 13.1558 12.7062C12.6926 12.9796 12.2062 13.2119 11.7023 13.4002C11.9668 13.9201 12.275 14.4166 12.6236 14.8844C14.1716 14.4176 15.6277 13.6875 16.9277 12.7263C17.2807 9.06527 16.3247 5.89231 14.4006 3.07904ZM5.676 10.7834C4.83764 10.7834 4.14502 10.0226 4.14502 9.08666C4.14502 8.15069 4.81357 7.38319 5.67333 7.38319C6.53309 7.38319 7.22036 8.15069 7.20565 9.08666C7.19094 10.0226 6.53041 10.7834 5.676 10.7834ZM11.3239 10.7834C10.4842 10.7834 9.79429 10.0226 9.79429 9.08666C9.79429 8.15069 10.4628 7.38319 11.3239 7.38319C12.185 7.38319 12.867 8.15069 12.8522 9.08666C12.8375 10.0226 12.1783 10.7834 11.3239 10.7834Z" fill="white"/>
</svg>
