<!--
  - Copyright (c) TIKI Inc.
  - MIT license. See LICENSE file in root directory.
  -->

<svg viewBox="0 0 24 24" xmlns="http://www.w3.org/2000/svg" fill="currentColor" aria-hidden="true">
  <path
    d="M12.0001 2C6.61597 2 2.25 6.36516 2.25 11.7501C2.25 16.058 5.0437 19.7127 8.9177 21.0019C9.40497 21.0922 9.58387 20.7904 9.58387 20.5329C9.58387 20.3003 9.57483 19.5323 9.57063 18.7176C6.85815 19.3075 6.28579 17.5673 6.28579 17.5673C5.84227 16.4403 5.20322 16.1405 5.20322 16.1405C4.31859 15.5355 5.2699 15.5479 5.2699 15.5479C6.24897 15.6165 6.7645 16.5528 6.7645 16.5528C7.63412 18.0432 9.04542 17.6122 9.6018 17.3632C9.68931 16.733 9.94198 16.3027 10.2208 16.0593C8.0552 15.8128 5.77865 14.9768 5.77865 11.2408C5.77865 10.1764 6.15952 9.30658 6.78323 8.62378C6.68201 8.37805 6.34827 7.38653 6.87769 6.04353C6.87769 6.04353 7.69644 5.78149 9.55966 7.04295C10.3374 6.82693 11.1715 6.71859 12.0001 6.71487C12.8287 6.71859 13.6634 6.82693 14.4427 7.04295C16.3035 5.78149 17.1212 6.04353 17.1212 6.04353C17.6519 7.38653 17.318 8.37805 17.2167 8.62378C17.842 9.30658 18.2203 10.1764 18.2203 11.2408C18.2203 14.9857 15.9393 15.8103 13.7682 16.0516C14.1179 16.3542 14.4296 16.9475 14.4296 17.8572C14.4296 19.1618 14.4182 20.2117 14.4182 20.5329C14.4182 20.7923 14.5937 21.0964 15.088 21.0006C18.9599 19.71 21.75 16.0565 21.75 11.7501C21.75 6.36516 17.3846 2 12.0001 2Z"/>
</svg>
