<!--
  - Copyright (c) TIKI Inc.
  - MIT license. See LICENSE file in root directory.
  -->

<svg width="17" height="17" viewBox="0 0 17 17" fill="none" xmlns="http://www.w3.org/2000/svg">
<path fill-rule="evenodd" clip-rule="evenodd" d="M8.50007 0.211864C3.80623 0.211864 0 4.01739 0 8.71193C0 12.4675 2.43553 15.6537 5.81287 16.7776C6.23767 16.8563 6.39363 16.5932 6.39363 16.3687C6.39363 16.166 6.38575 15.4965 6.38209 14.7862C4.01736 15.3004 3.51838 13.7833 3.51838 13.7833C3.13172 12.8008 2.5746 12.5396 2.5746 12.5396C1.80339 12.012 2.63273 12.0228 2.63273 12.0228C3.48628 12.0827 3.93572 12.8989 3.93572 12.8989C4.69385 14.1982 5.92421 13.8226 6.40926 13.6054C6.48555 13.056 6.70583 12.6809 6.94892 12.4688C5.06094 12.2538 3.07626 11.525 3.07626 8.26798C3.07626 7.33997 3.4083 6.58171 3.95205 5.98645C3.8638 5.77221 3.57285 4.90782 4.0344 3.737C4.0344 3.737 4.74818 3.50855 6.37252 4.60829C7.05055 4.41995 7.7777 4.32551 8.50007 4.32227C9.22244 4.32551 9.95016 4.41995 10.6295 4.60829C12.2518 3.50855 12.9646 3.737 12.9646 3.737C13.4273 4.90782 13.1362 5.77221 13.0479 5.98645C13.593 6.58171 13.9228 7.33997 13.9228 8.26798C13.9228 11.5327 11.9343 12.2516 10.0415 12.462C10.3464 12.7258 10.6181 13.2431 10.6181 14.0361C10.6181 15.1734 10.6082 16.0888 10.6082 16.3687C10.6082 16.5949 10.7612 16.86 11.1921 16.7765C14.5676 15.6513 17 12.4662 17 8.71193C17 4.01739 13.1943 0.211864 8.50007 0.211864Z" fill="white"/>
</svg>
