<!--
  - Copyright (c) TIKI Inc.
  - MIT license. See LICENSE file in root directory.
  -->

<svg viewBox="0 0 30 30" xmlns="http://www.w3.org/2000/svg">
<path d="M5.90155 7.52825C5.90272 6.83801 6.46288 6.27785 7.15312 6.27668H28.4321C28.7685 6.27199 29.0919 6.4009 29.3309 6.63644C29.57 6.87198 29.7036 7.19309 29.7036 7.52825C29.7036 7.86341 29.57 8.18567 29.3309 8.42006C29.0919 8.65561 28.7685 8.7857 28.4321 8.77982H7.15312C6.46288 8.77982 5.90272 8.21966 5.90155 7.52825ZM28.4321 13.7497H7.15315C6.46174 13.7497 5.90158 14.3098 5.90158 15.0012C5.90158 15.6926 6.46174 16.2528 7.15315 16.2528H28.4321C29.1236 16.2528 29.6849 15.6926 29.6849 15.0012C29.6849 14.3098 29.1236 13.7497 28.4321 13.7497ZM28.4321 21.2545L7.15315 21.2533C6.81799 21.2486 6.49456 21.3775 6.25549 21.613C6.01643 21.8486 5.88166 22.1697 5.88166 22.5049C5.88166 22.8412 6.01643 23.1623 6.25549 23.3978C6.49455 23.6334 6.81799 23.7623 7.15315 23.7576H28.4321C28.7685 23.7623 29.0919 23.6334 29.331 23.3978C29.57 23.1623 29.7036 22.8412 29.7036 22.5049C29.7036 22.1697 29.57 21.8486 29.331 21.613C29.0919 21.3775 28.7685 21.2486 28.4321 21.2533V21.2545ZM2.64865 20.14C1.70413 20.14 0.854499 20.7084 0.493569 21.5791C0.132639 22.4509 0.331851 23.4541 0.998649 24.1209C1.66663 24.7889 2.66974 24.9881 3.54046 24.6271C4.41232 24.2662 4.9807 23.4154 4.9807 22.4721C4.97953 21.1842 3.93538 20.1412 2.64868 20.14L2.64865 20.14ZM2.64865 12.6682C1.7053 12.6682 0.854499 13.2366 0.493569 14.1085C0.132639 14.9791 0.333021 15.9823 0.999819 16.6491C1.66663 17.3159 2.66974 17.5163 3.54046 17.1553C4.41232 16.7944 4.9807 15.9436 4.9807 15.0003C4.97953 13.7124 3.93538 12.6694 2.64868 12.6682L2.64865 12.6682ZM2.64865 5.19641C1.7053 5.19641 0.854499 5.76476 0.493569 6.63665C0.132639 7.50734 0.331851 8.51048 0.998649 9.17846C1.66546 9.84527 2.66857 10.0445 3.54046 9.68354C4.41235 9.32261 4.9807 8.47181 4.9807 7.52846C4.97953 6.24173 3.93538 5.19761 2.64868 5.19644L2.64865 5.19641Z" />
</svg>
