<!--
  - Copyright (c) TIKI Inc.
  - MIT license. See LICENSE file in root directory.
  -->

<svg viewBox="0 0 30 30" xmlns="http://www.w3.org/2000/svg">
<path d="M24.2004 12.9328C24.2004 12.866 24.2333 12.8332 24.2333 12.7664C24.2333 12.6996 24.2004 12.6328 24.2004 12.6C24.2004 12.5332 24.2004 12.4664 24.1676 12.4335C24.1348 12.3667 24.1008 12.3339 24.068 12.2671C24.0352 12.2343 24.0012 12.1675 23.9684 12.1335L19.9688 8.23354C19.602 7.86673 19.002 7.86673 18.6352 8.23354C18.2684 8.60035 18.2684 9.20036 18.6352 9.56713L21.9352 12.7675L6.66672 27.9994H4.49991C4.43311 27.9994 2.00031 25.4002 2.00031 25.4002V22.9674L18.2999 6.60088C18.6667 6.23407 18.6327 5.63407 18.2671 5.2673C17.9003 4.90048 17.3003 4.90048 16.9335 5.2673L0.332706 21.9326C0.233097 22.0322 0.166299 22.133 0.132315 22.2326C0.0995008 22.2326 0.332706 29.0003 0.332706 29.0003C0.332706 29.5007 0.466299 29.6671 0.965526 29.6671C0.965526 29.6671 7.59823 29.6999 7.69903 29.6343L23.9317 13.4016C23.9645 13.3688 23.9985 13.302 24.0313 13.2352C24.0641 13.1684 24.0981 13.1356 24.1309 13.0688C24.1661 13.0336 24.1661 12.9668 24.2001 12.9328L24.2004 12.9328Z" />
<path d="M23.3673 0.200401C23.0005 -0.16641 22.4005 -0.16641 22.0337 0.200401L19.7673 2.46681C19.4005 2.83362 19.4005 3.43362 19.7673 3.8004C19.9337 3.96681 20.2009 4.06759 20.4341 4.06759C20.6673 4.06759 20.9005 3.96798 21.1009 3.8004L22.7673 2.13399L27.7677 7.00089L25.0677 9.8673C24.7009 10.2341 24.7349 10.8341 25.1005 11.2009C25.2669 11.3673 25.5001 11.4681 25.7334 11.4681C25.9666 11.4681 26.2338 11.3685 26.4002 11.1681L29.4671 7.90078C29.4999 7.86796 29.5339 7.80117 29.5667 7.76718C29.6335 7.73437 29.7003 7.70039 29.7331 7.66758C30.0999 7.30077 30.0999 6.70077 29.7331 6.33399C29.7331 6.26719 23.4331 0.233185 23.3674 0.200485L23.3673 0.200401Z" />
<path d="M16.6665 11.7996L6.46651 21.9996C6.0997 22.3665 6.0997 22.9665 6.46651 23.3332C6.63292 23.4996 6.9001 23.6004 7.13332 23.6004C7.36654 23.6004 7.59973 23.5008 7.80013 23.3332L18.0001 13.1332C18.3669 12.7664 18.3669 12.1664 18.0001 11.7996C17.6333 11.4328 17.0333 11.4328 16.6665 11.7996H16.6665Z" />
</svg>
