<!--
  - Copyright (c) TIKI Inc.
  - MIT license. See LICENSE file in root directory.
  -->

<svg viewBox="0 0 24 24" xmlns="http://www.w3.org/2000/svg" fill="currentColor" aria-hidden="true">
  <path
    d="M20.7599 4H15.6657C14.8137 3.99976 13.987 4.28942 13.3214 4.82136C12.6558 5.3533 12.1911 6.09586 12.0035 6.92698C11.8159 6.09586 11.3512 5.3533 10.6856 4.82136C10.02 4.28942 9.19329 3.99976 8.34127 4H3.25058C2.7863 4 2.34104 4.18444 2.01274 4.51274C1.68444 4.84104 1.5 5.2863 1.5 5.75058V14.7136C1.5 15.1779 1.68444 15.6231 2.01274 15.9514C2.34104 16.2797 2.7863 16.4642 3.25058 16.4642H6.52068C10.2459 16.4642 11.3593 17.3605 11.8915 19.2056C11.897 19.2271 11.9098 19.2462 11.9276 19.2595C11.9454 19.2729 11.9672 19.2798 11.9895 19.2791H12.0105C12.0328 19.2798 12.0546 19.2729 12.0724 19.2595C12.0902 19.2462 12.103 19.2271 12.1085 19.2056C12.6442 17.3605 13.7576 16.4642 17.4793 16.4642H20.7494C21.2137 16.4642 21.659 16.2797 21.9873 15.9514C22.3156 15.6231 22.5 15.1779 22.5 14.7136V5.75058C22.5 5.28811 22.317 4.84443 21.991 4.51644C21.665 4.18844 21.2224 4.00277 20.7599 4ZM10.3229 13.6737C10.3229 13.6903 10.3197 13.7067 10.3134 13.722C10.307 13.7373 10.2977 13.7512 10.286 13.7629C10.2743 13.7746 10.2604 13.7838 10.2451 13.7902C10.2298 13.7965 10.2135 13.7998 10.1969 13.7998H4.34996C4.3334 13.7998 4.31702 13.7965 4.30173 13.7902C4.28643 13.7838 4.27253 13.7746 4.26082 13.7629C4.24912 13.7512 4.23983 13.7373 4.23349 13.722C4.22716 13.7067 4.22392 13.6903 4.22392 13.6737V12.8404C4.22392 12.8239 4.22716 12.8075 4.23349 12.7922C4.23983 12.7769 4.24912 12.763 4.26082 12.7513C4.27253 12.7396 4.28643 12.7303 4.30173 12.724C4.31702 12.7177 4.3334 12.7144 4.34996 12.7144H10.1969C10.2135 12.7144 10.2298 12.7177 10.2451 12.724C10.2604 12.7303 10.2743 12.7396 10.286 12.7513C10.2977 12.763 10.307 12.7769 10.3134 12.7922C10.3197 12.8075 10.3229 12.8239 10.3229 12.8404V13.6737ZM10.3229 11.454C10.3229 11.4874 10.3097 11.5195 10.286 11.5431C10.2624 11.5668 10.2303 11.58 10.1969 11.58H4.34996C4.31653 11.58 4.28446 11.5668 4.26082 11.5431C4.23719 11.5195 4.22392 11.4874 4.22392 11.454V10.6207C4.22392 10.5873 4.23719 10.5552 4.26082 10.5316C4.28446 10.5079 4.31653 10.4947 4.34996 10.4947H10.1969C10.2303 10.4947 10.2624 10.5079 10.286 10.5316C10.3097 10.5552 10.3229 10.5873 10.3229 10.6207V11.454ZM10.3229 9.23425C10.3229 9.26768 10.3097 9.29973 10.286 9.32337C10.2624 9.34701 10.2303 9.36029 10.1969 9.36029H4.34996C4.31653 9.36029 4.28446 9.34701 4.26082 9.32337C4.23719 9.29973 4.22392 9.26768 4.22392 9.23425V8.40097C4.22392 8.36754 4.23719 8.33548 4.26082 8.31184C4.28446 8.28821 4.31653 8.27493 4.34996 8.27493H10.1969C10.2303 8.27493 10.2624 8.28821 10.286 8.31184C10.3097 8.33548 10.3229 8.36754 10.3229 8.40097V9.23425ZM19.7761 13.6702C19.7761 13.6868 19.7728 13.7032 19.7665 13.7185C19.7602 13.7338 19.7509 13.7477 19.7392 13.7594C19.7275 13.7711 19.7136 13.7803 19.6983 13.7867C19.683 13.793 19.6666 13.7963 19.6501 13.7963H13.8031C13.7866 13.7963 13.7702 13.793 13.7549 13.7867C13.7396 13.7803 13.7257 13.7711 13.714 13.7594C13.7023 13.7477 13.693 13.7338 13.6866 13.7185C13.6803 13.7032 13.6771 13.6868 13.6771 13.6702V12.837C13.6771 12.8204 13.6803 12.804 13.6866 12.7887C13.693 12.7734 13.7023 12.7595 13.714 12.7478C13.7257 12.7361 13.7396 12.7268 13.7549 12.7205C13.7702 12.7142 13.7866 12.7109 13.8031 12.7109H19.6501C19.6666 12.7109 19.683 12.7142 19.6983 12.7205C19.7136 12.7268 19.7275 12.7361 19.7392 12.7478C19.7509 12.7595 19.7602 12.7734 19.7665 12.7887C19.7728 12.804 19.7761 12.8204 19.7761 12.837V13.6702ZM19.7761 11.4505C19.7761 11.4839 19.7628 11.516 19.7392 11.5396C19.7155 11.5632 19.6835 11.5765 19.6501 11.5765H13.8031C13.7697 11.5765 13.7376 11.5632 13.714 11.5396C13.6903 11.516 13.6771 11.4839 13.6771 11.4505V10.6172C13.6771 10.5838 13.6903 10.5517 13.714 10.5281C13.7376 10.5044 13.7697 10.4912 13.8031 10.4912H19.6501C19.6835 10.4912 19.7155 10.5044 19.7392 10.5281C19.7628 10.5517 19.7761 10.5838 19.7761 10.6172V11.4505ZM19.7761 9.23075C19.7761 9.26417 19.7628 9.29624 19.7392 9.31987C19.7155 9.34351 19.6835 9.35679 19.6501 9.35679H13.8031C13.7697 9.35679 13.7376 9.34351 13.714 9.31987C13.6903 9.29624 13.6771 9.26417 13.6771 9.23075V8.40097C13.6771 8.36754 13.6903 8.33548 13.714 8.31184C13.7376 8.28821 13.7697 8.27493 13.8031 8.27493H19.6501C19.6835 8.27493 19.7155 8.28821 19.7392 8.31184C19.7628 8.33548 19.7761 8.36754 19.7761 8.40097V9.23425V9.23075Z"/>
</svg>
