<!--
  - Copyright (c) TIKI Inc.
  - MIT license. See LICENSE file in root directory.
  -->

<svg viewBox="0 0 30 30" xmlns="http://www.w3.org/2000/svg">
<path d="M19.6925 26.3157C20.6042 25.7766 21.4515 25.1274 22.2109 24.3833C22.5964 24.0048 22.6034 23.386 22.2273 22.9993C21.8511 22.6126 21.2324 22.6067 20.8468 22.9829C20.2023 23.6157 19.4804 24.1688 18.7034 24.627C17.0042 25.6302 15.059 26.1587 13.0736 26.1587C6.94134 26.1587 1.95264 21.1547 1.95264 15.0014C1.95264 8.85018 6.94134 3.84408 13.0736 3.84408C19.2071 3.84408 24.1958 8.84928 24.1958 15.0014C24.1958 15.1608 24.2017 15.2967 24.2111 15.4315L20.9675 12.7197C20.5561 12.3752 19.948 12.4373 19.6081 12.8604C19.2694 13.2834 19.3292 13.9057 19.7417 14.2514L24.4445 18.1877C24.6683 18.374 24.9437 18.4302 25.2086 18.3869C25.4758 18.3752 25.7371 18.2627 25.9199 18.0341L29.7812 13.2059C30.1199 12.7829 30.0601 12.1606 29.6488 11.8161C29.2375 11.4716 28.6293 11.5337 28.2894 11.9567L26.1285 14.6579C25.9445 7.5869 20.1648 1.8902 13.0725 1.8902C5.86559 1.8902 0.000293614 7.77289 0.000293469 15.0047C0.000293324 22.2365 5.86559 28.1192 13.0725 28.1192C15.4033 28.1192 17.6931 27.4946 19.6923 26.3157L19.6925 26.3157Z" />
</svg>
