<!--
  - Copyright (c) TIKI Inc.
  - MIT license. See LICENSE file in root directory.
  -->

<svg viewBox="0 0 30 30" xmlns="http://www.w3.org/2000/svg">
  <path
    d="M15.8282 2.05367C9.35412 2.62238 4.26895 8.02184 4.01757 14.4959H1.04822C0.226613 14.4959 -0.277925 15.4113 0.163704 16.1071L5.72259 25.0126C6.1334 25.6763 7.08083 25.6763 7.49163 25.0126L13.0505 16.1071C13.4922 15.4126 12.9876 14.4959 12.166 14.4959H9.2608V14.4639C9.5433 10.5485 12.7963 7.39036 16.712 7.26435C21.2913 7.10645 25.05 10.9284 24.7342 15.5383C24.5134 18.9171 21.4811 22.2025 18.1022 22.6762C17.2498 22.802 16.4282 22.7712 15.6386 22.6441C15.2278 22.5812 14.7862 22.7391 14.5654 23.1178L12.8284 26.0551C12.4805 26.6238 12.7655 27.3505 13.3972 27.5392C14.7554 27.9179 16.2074 28.1079 17.6928 28.0129C24.1041 27.665 29.3778 22.6119 29.9466 16.2022C30.6719 8.08623 23.913 1.32695 15.8289 2.05363L15.8282 2.05367Z"/>
</svg>
