<svg width="34" height="34" viewBox="0 0 34 34" fill="none" xmlns="http://www.w3.org/2000/svg">
<path d="M0.435067 28.3333C0.435067 31.4629 2.97212 34 6.10174 34H27.8966C31.0263 34 33.5633 31.4629 33.5633 28.3333V7.4852C33.5633 7.20765 33.4748 6.93692 33.3113 6.71217L29.7492 1.84407C29.504 1.50693 29.1107 1.30769 28.6935 1.30769H26.153C26.153 0.58576 25.5673 0 24.8453 0H9.15302C8.43108 0 7.84532 0.58576 7.84532 1.30769H6.10173C2.97212 1.30769 0.435059 3.84475 0.435059 6.97437L0.435067 28.3333ZM23.5377 31.3846H10.4607V29.7551C10.711 30.0326 11.0669 30.1927 11.4415 30.191H22.5569C22.9315 30.1927 23.2874 30.0326 23.5377 29.7551V31.3846ZM23.5377 28.0404C23.2874 27.7629 22.9315 27.6028 22.5569 27.6045H11.4415C11.0669 27.6028 10.711 27.7629 10.4607 28.0404V25.3961C10.711 25.6737 11.0669 25.8337 11.4415 25.832H22.5569C22.9315 25.8337 23.2874 25.6737 23.5377 25.3961V28.0404ZM23.5377 23.6815C23.2874 23.4039 22.9315 23.2439 22.5569 23.2456H11.4415C11.0669 23.2439 10.711 23.4039 10.4607 23.6815V22.8846C10.4607 22.1627 11.0465 21.5769 11.7684 21.5769H22.23C22.9519 21.5769 23.5377 22.1627 23.5377 22.8846V23.6815ZM10.4607 2.61539H23.5377V9.37181H10.4607V2.61539ZM3.05046 6.97437C3.05046 5.28866 4.41604 3.92308 6.10174 3.92308H7.84533V10.6795C7.84533 11.4014 8.43109 11.9872 9.15303 11.9872H24.8454C25.5673 11.9872 26.153 11.4014 26.153 10.6795V3.92308H28.0312L30.9479 7.91085V28.3335C30.9479 29.1424 30.6261 29.9188 30.054 30.4909C29.4819 31.063 28.7054 31.3848 27.8966 31.3848H26.153V22.8848C26.153 20.7189 24.3959 18.9617 22.23 18.9617H11.7684C9.60253 18.9617 7.84533 20.7189 7.84533 22.8848V31.3848H6.10174C4.41604 31.3848 3.05046 30.0192 3.05046 28.3335V6.97437Z" fill="white"/>
</svg>
