<!--
  - Copyright (c) TIKI Inc.
  - MIT license. See LICENSE file in root directory.
  -->

<svg viewBox="0 0 30 30" xmlns="http://www.w3.org/2000/svg">
  <path
    d="M8.67462 5.23242C8.67462 5.32529 8.71125 5.41424 8.77665 5.47965C8.84206 5.54505 8.93101 5.58168 9.02258 5.58168H17.3944C17.4873 5.58168 17.5762 5.54505 17.6417 5.47965C17.7071 5.41424 17.7437 5.32529 17.7437 5.23242V1.52588e-05H8.67464L8.67462 5.23242Z"/>
  <path
    d="M19.1394 19.1859C19.1394 21.6909 17.1093 23.7211 14.6043 23.7211C12.0992 23.7211 10.0691 21.6909 10.0691 19.1859C10.0691 16.6809 12.0992 14.6507 14.6043 14.6507C17.1093 14.6507 19.1394 16.6809 19.1394 19.1859Z"/>
  <path
    d="M28.2085 26.162V8.99974C28.2098 8.12984 27.9142 7.28351 27.3713 6.60332L23.2403 1.44023C22.5117 0.527168 21.4076 -0.0026024 20.2395 9.61365e-06H19.8366V5.23241C19.8353 6.58105 18.7431 7.67334 17.3944 7.67464H9.02257C7.67524 7.67334 6.58295 6.58108 6.58164 5.23241V9.61365e-06H4.83665C2.71884 0.00262598 1.00134 1.71885 1 3.838V26.162C1.00131 28.2811 2.71884 29.9973 4.83665 30H24.3718C26.4896 29.9974 28.2071 28.2812 28.2085 26.162ZM14.6042 25.814C12.8462 25.814 11.1614 25.1155 9.91735 23.8728C8.67467 22.6288 7.97612 20.944 7.97612 19.1859C7.97612 17.4279 8.67463 15.7431 9.91735 14.499C11.1613 13.2564 12.8462 12.5578 14.6042 12.5578C16.3623 12.5578 18.0471 13.2563 19.2911 14.499C20.5338 15.743 21.2324 17.4279 21.2324 19.1859C21.2297 20.9427 20.5312 22.6274 19.2885 23.8701C18.0458 25.1128 16.3609 25.8114 14.6042 25.814Z"/>
</svg>
