<!--
  - Copyright (c) TIKI Inc.
  - MIT license. See LICENSE file in root directory.
  -->

<svg width="17" height="17" viewBox="0 0 17 17" fill="none" xmlns="http://www.w3.org/2000/svg">
<path d="M15.5932 2H11.4669C10.0473 2 8.81371 2.99878 8.50345 4.40841C8.19054 2.99878 6.95959 2 5.54005 2H1.41689C0.634863 2 0 2.64462 0 3.43987V10.8125C0 11.6072 0.634332 12.2524 1.41689 12.2524H4.06419C7.08072 12.2524 7.98069 12.9839 8.41154 14.5021C8.43226 14.5863 8.56508 14.5863 8.58846 14.5021C9.0225 12.9844 9.92247 12.2524 12.9358 12.2524H15.5831C16.3651 12.2524 17 11.6077 17 10.8125V3.4431C17 2.6511 16.3715 2.00648 15.5921 2.00054L15.5932 2ZM7.14288 9.96002C7.14288 10.0172 7.09878 10.0648 7.03981 10.0648H2.30835C2.25257 10.0648 2.20529 10.0199 2.20529 9.96002V9.27329C2.20529 9.2166 2.24938 9.16855 2.30835 9.16855H7.04247C7.09825 9.16855 7.14554 9.21337 7.14554 9.27329V9.96002H7.14288ZM7.14288 8.1336C7.14288 8.19029 7.09878 8.23834 7.03981 8.23834H2.30835C2.25257 8.23834 2.20529 8.19353 2.20529 8.1336V7.44687C2.20529 7.38964 2.24938 7.34213 2.30835 7.34213H7.04247C7.09825 7.34213 7.14554 7.38694 7.14554 7.44687V8.1336H7.14288ZM7.14288 6.30718C7.14288 6.36387 7.09878 6.41192 7.03981 6.41192H2.30835C2.25257 6.41192 2.20529 6.36711 2.20529 6.30718V5.62045C2.20529 5.56376 2.24938 5.51571 2.30835 5.51571H7.04247C7.09825 5.51571 7.14554 5.56052 7.14554 5.62045V6.30718H7.14288ZM14.7963 9.95732C14.7963 10.014 14.7522 10.0621 14.6932 10.0621H9.96178C9.906 10.0621 9.85871 10.0173 9.85871 9.95732V9.27059C9.85871 9.2139 9.90281 9.16586 9.96178 9.16586H14.6959C14.7522 9.16586 14.799 9.21067 14.799 9.27059V9.95732H14.7963ZM14.7963 8.1309C14.7963 8.18813 14.7522 8.23564 14.6932 8.23564H9.96178C9.906 8.23564 9.85871 8.19083 9.85871 8.1309V7.44417C9.85871 7.38748 9.90281 7.33943 9.96178 7.33943H14.6959C14.7522 7.33943 14.799 7.38424 14.799 7.44417V8.1309H14.7963ZM14.7963 6.30394C14.7963 6.36063 14.7522 6.40868 14.6932 6.40868H9.96178C9.906 6.40868 9.85871 6.36387 9.85871 6.30394V5.61991C9.85871 5.56322 9.90281 5.51517 9.96178 5.51517H14.6959C14.7522 5.51517 14.799 5.55998 14.799 5.61991V6.30394H14.7963Z" fill="white"/>
</svg>
