<!--
  - Copyright (c) TIKI Inc.
  - MIT license. See LICENSE file in root directory.
  -->

<svg viewBox="0 0 24 24" fill="currentColor" xmlns="http://www.w3.org/2000/svg" aria-hidden="true">
  <path
    d="M20.3303 4.52335C18.7535 3.80145 17.0889 3.2893 15.379 3C15.1449 3.41829 14.9333 3.84866 14.7447 4.28928C12.9233 4.01482 11.071 4.01482 9.24964 4.28928C9.06097 3.8487 8.84926 3.41834 8.61537 3C6.90435 3.29174 5.23862 3.8051 3.66021 4.52714C0.526646 9.16329 -0.322812 13.6843 0.101917 18.1412C1.937 19.497 3.991 20.528 6.1746 21.1897C6.66627 20.5285 7.10135 19.8268 7.47522 19.0926C6.76512 18.8273 6.07977 18.5 5.42708 18.1146C5.59885 17.9901 5.76686 17.8618 5.9292 17.7371C7.8284 18.6303 9.90127 19.0934 12 19.0934C14.0987 19.0934 16.1715 18.6303 18.0708 17.7371C18.235 17.8712 18.403 17.9996 18.5729 18.1146C17.919 18.5007 17.2323 18.8285 16.5209 19.0944C16.8944 19.8284 17.3295 20.5294 17.8216 21.1897C20.007 20.5307 22.0627 19.5001 23.898 18.143C24.3963 12.9745 23.0467 8.49504 20.3303 4.52335ZM8.0132 15.4002C6.82963 15.4002 5.85181 14.3261 5.85181 13.0047C5.85181 11.6834 6.79565 10.5998 8.00943 10.5998C9.22321 10.5998 10.1935 11.6834 10.1727 13.0047C10.1519 14.3261 9.21943 15.4002 8.0132 15.4002ZM15.9867 15.4002C14.8013 15.4002 13.8273 14.3261 13.8273 13.0047C13.8273 11.6834 14.7711 10.5998 15.9867 10.5998C17.2024 10.5998 18.1652 11.6834 18.1443 13.0047C18.1236 14.3261 17.1929 15.4002 15.9867 15.4002Z"/>
</svg>
