<!--
  - Copyright (c) TIKI Inc.
  - MIT license. See LICENSE file in root directory.
  -->

<svg viewBox="0 0 24 24" fill="currentColor" xmlns="http://www.w3.org/2000/svg" aria-hidden="true">
  <path
    d="M12.0001 0.294998C5.3735 0.294998 0 5.6675 0 12.2951C0 17.5971 3.4384 22.0953 8.2064 23.6819C8.80612 23.793 9.0263 23.4216 9.0263 23.1047C9.0263 22.8185 9.01518 21.8732 9.01001 20.8706C5.67157 21.5965 4.96712 19.4547 4.96712 19.4547C4.42125 18.0676 3.63473 17.6987 3.63473 17.6987C2.54596 16.954 3.7168 16.9693 3.7168 16.9693C4.92181 17.0537 5.55631 18.2061 5.55631 18.2061C6.62661 20.0404 8.36359 19.51 9.04837 19.2035C9.15607 18.4279 9.46705 17.8984 9.81024 17.5988C7.14486 17.2954 4.34296 16.2665 4.34296 11.6683C4.34296 10.3582 4.81172 9.28771 5.57936 8.44735C5.45478 8.1449 5.04402 6.92458 5.69562 5.27165C5.69562 5.27165 6.70331 4.94914 8.9965 6.50171C9.95372 6.23583 10.9803 6.10249 12.0001 6.09792C13.0199 6.10249 14.0473 6.23583 15.0064 6.50171C17.2967 4.94914 18.303 5.27165 18.303 5.27165C18.9562 6.92458 18.5452 8.1449 18.4206 8.44735C19.1901 9.28771 19.6557 10.3582 19.6557 11.6683C19.6557 16.2774 16.8484 17.2923 14.1762 17.5893C14.6067 17.9618 14.9903 18.6919 14.9903 19.8116C14.9903 21.4172 14.9763 22.7094 14.9763 23.1047C14.9763 23.424 15.1923 23.7983 15.8006 23.6804C20.566 22.0919 24 17.5953 24 12.2951C24 5.6675 18.6272 0.294998 12.0001 0.294998Z"/>
</svg>
