<!--
  - Copyright (c) TIKI Inc.
  - MIT license. See LICENSE file in root directory.
  -->

<svg viewBox="0 0 24 24" fill="currentColor" xmlns="http://www.w3.org/2000/svg" aria-hidden="true">
  <path
    d="M22.0113 3H16.1894C15.2157 2.99973 14.2708 3.33077 13.5102 3.9387C12.7495 4.54663 12.2184 5.39527 12.004 6.34512C11.7896 5.39527 11.2585 4.54663 10.4978 3.9387C9.7372 3.33077 8.79233 2.99973 7.8186 3H2.00067C1.47006 3 0.961185 3.21079 0.585987 3.58599C0.210789 3.96118 0 4.47006 0 5.00067V15.2441C0 15.7747 0.210789 16.2836 0.585987 16.6588C0.961185 17.034 1.47006 17.2448 2.00067 17.2448H5.73793C9.99535 17.2448 11.2678 18.2691 11.876 20.3778C11.8823 20.4025 11.8969 20.4242 11.9172 20.4395C11.9376 20.4548 11.9626 20.4626 11.988 20.4618H12.012C12.0375 20.4626 12.0624 20.4548 12.0828 20.4395C12.1031 20.4242 12.1177 20.4025 12.124 20.3778C12.7362 18.2691 14.0087 17.2448 18.2621 17.2448H21.9993C22.5299 17.2448 23.0388 17.034 23.414 16.6588C23.7892 16.2836 24 15.7747 24 15.2441V5.00067C24 4.47213 23.7909 3.96507 23.4183 3.59021C23.0457 3.21536 22.5399 3.00317 22.0113 3ZM10.0834 14.0557C10.0834 14.0746 10.0796 14.0933 10.0724 14.1108C10.0652 14.1283 10.0545 14.1442 10.0412 14.1576C10.0278 14.1709 10.0119 14.1815 9.99445 14.1888C9.97697 14.196 9.95824 14.1997 9.93933 14.1997H3.25709C3.23818 14.1997 3.21945 14.196 3.20197 14.1888C3.1845 14.1815 3.1686 14.1709 3.15523 14.1576C3.14185 14.1442 3.13123 14.1283 3.12399 14.1108C3.11675 14.0933 3.11305 14.0746 3.11305 14.0557V13.1034C3.11305 13.0845 3.11675 13.0657 3.12399 13.0483C3.13123 13.0308 3.14185 13.0149 3.15523 13.0015C3.1686 12.9881 3.1845 12.9775 3.20197 12.9703C3.21945 12.963 3.23818 12.9593 3.25709 12.9593H9.93933C9.95824 12.9593 9.97697 12.963 9.99445 12.9703C10.0119 12.9775 10.0278 12.9881 10.0412 13.0015C10.0545 13.0149 10.0652 13.0308 10.0724 13.0483C10.0796 13.0657 10.0834 13.0845 10.0834 13.1034V14.0557ZM10.0834 11.5188C10.0834 11.557 10.0682 11.5937 10.0412 11.6207C10.0142 11.6477 9.97753 11.6629 9.93933 11.6629H3.25709C3.21889 11.6629 3.18224 11.6477 3.15523 11.6207C3.12821 11.5937 3.11305 11.557 3.11305 11.5188V10.5665C3.11305 10.5283 3.12821 10.4917 3.15523 10.4647C3.18224 10.4377 3.21889 10.4225 3.25709 10.4225H9.93933C9.97753 10.4225 10.0142 10.4377 10.0412 10.4647C10.0682 10.4917 10.0834 10.5283 10.0834 10.5665V11.5188ZM10.0834 8.982C10.0834 9.0202 10.0682 9.05684 10.0412 9.08385C10.0142 9.11087 9.97753 9.12605 9.93933 9.12605H3.25709C3.21889 9.12605 3.18224 9.11087 3.15523 9.08385C3.12821 9.05684 3.11305 9.0202 3.11305 8.982V8.02968C3.11305 7.99148 3.12821 7.95484 3.15523 7.92782C3.18224 7.90081 3.21889 7.88563 3.25709 7.88563H9.93933C9.97753 7.88563 10.0142 7.90081 10.0412 7.92782C10.0682 7.95484 10.0834 7.99148 10.0834 8.02968V8.982ZM20.887 14.0517C20.887 14.0706 20.8832 14.0893 20.876 14.1068C20.8688 14.1243 20.8581 14.1402 20.8448 14.1536C20.8314 14.1669 20.8155 14.1775 20.7981 14.1848C20.7806 14.192 20.7618 14.1957 20.7429 14.1957H14.0607C14.0418 14.1957 14.0231 14.192 14.0056 14.1848C13.9881 14.1775 13.9722 14.1669 13.9588 14.1536C13.9455 14.1402 13.9348 14.1243 13.9276 14.1068C13.9204 14.0893 13.9167 14.0706 13.9167 14.0517V13.0994C13.9167 13.0805 13.9204 13.0617 13.9276 13.0442C13.9348 13.0268 13.9455 13.0109 13.9588 12.9975C13.9722 12.9841 13.9881 12.9735 14.0056 12.9663C14.0231 12.9591 14.0418 12.9553 14.0607 12.9553H20.7429C20.7618 12.9553 20.7806 12.9591 20.7981 12.9663C20.8155 12.9735 20.8314 12.9841 20.8448 12.9975C20.8581 13.0109 20.8688 13.0268 20.876 13.0442C20.8832 13.0617 20.887 13.0805 20.887 13.0994V14.0517ZM20.887 11.5148C20.887 11.5531 20.8718 11.5897 20.8448 11.6167C20.8178 11.6437 20.7811 11.6589 20.7429 11.6589H14.0607C14.0225 11.6589 13.9858 11.6437 13.9588 11.6167C13.9318 11.5897 13.9167 11.5531 13.9167 11.5148V10.5625C13.9167 10.5243 13.9318 10.4877 13.9588 10.4607C13.9858 10.4337 14.0225 10.4185 14.0607 10.4185H20.7429C20.7811 10.4185 20.8178 10.4337 20.8448 10.4607C20.8718 10.4877 20.887 10.5243 20.887 10.5625V11.5148ZM20.887 8.978C20.887 9.0162 20.8718 9.05284 20.8448 9.07985C20.8178 9.10687 20.7811 9.12204 20.7429 9.12204H14.0607C14.0225 9.12204 13.9858 9.10687 13.9588 9.07985C13.9318 9.05284 13.9167 9.0162 13.9167 8.978V8.02968C13.9167 7.99148 13.9318 7.95484 13.9588 7.92782C13.9858 7.90081 14.0225 7.88563 14.0607 7.88563H20.7429C20.7811 7.88563 20.8178 7.90081 20.8448 7.92782C20.8718 7.95484 20.887 7.99148 20.887 8.02968V8.982V8.978Z"/>
</svg>
